<svg width="256" height="256" viewBox="0 0 256 256" fill="none" xmlns="http://www.w3.org/2000/svg">
<path fill-rule="evenodd" clip-rule="evenodd" d="M127.5 37C105.302 36.9886 83.8244 44.865 66.9136 59.2188C50.0029 73.5726 38.7631 93.4663 35.2071 115.338C31.6511 137.209 36.0109 159.63 47.506 178.585C59.0011 197.541 76.8806 211.793 97.9431 218.789C102.637 219.657 104.333 216.794 104.333 214.451C104.333 212.108 104.333 206.381 104.333 198.615C78.2531 204.255 72.8633 186.119 72.8633 186.119C71.1383 180.381 67.3851 175.463 62.3011 172.279C53.8252 166.509 62.9531 166.595 62.9531 166.595C65.9137 167.009 68.7408 168.092 71.219 169.761C73.6971 171.43 75.761 173.642 77.2533 176.227C85.5988 190.501 98.9863 186.38 104.463 183.993C104.895 179.254 107.007 174.823 110.418 171.498C89.6411 169.155 67.8212 161.172 67.8212 125.422C67.6835 116.147 71.1407 107.178 77.4707 100.388C74.5948 92.3459 74.9215 83.509 78.3835 75.7007C78.3835 75.7007 86.2073 73.1843 104.072 85.2458C119.382 81.0806 135.531 81.0806 150.841 85.2458C168.706 73.1843 176.529 75.7007 176.529 75.7007C179.965 83.515 180.292 92.3418 177.442 100.388C183.76 107.183 187.202 116.152 187.048 125.422C187.048 161.259 165.315 169.112 144.408 171.455C146.652 173.724 148.379 176.448 149.474 179.442C150.569 182.437 151.006 185.631 150.754 188.809C150.754 201.261 150.754 211.327 150.754 214.407C150.754 217.488 152.449 219.787 157.187 218.746C178.228 211.722 196.079 197.455 207.547 178.497C219.015 159.539 223.352 137.127 219.782 115.27C216.212 93.4128 204.967 73.5365 188.06 59.1965C171.153 44.8566 149.686 36.9886 127.5 37Z" fill="#F4F4F4" stroke="#F4F4F4" stroke-width="8" stroke-linecap="round" stroke-linejoin="round"/>
</svg>
