<svg width="256" height="256" viewBox="0 0 256 256" fill="none" xmlns="http://www.w3.org/2000/svg">
<path fill-rule="evenodd" clip-rule="evenodd" d="M79.7969 194.516C97.9325 209.25 118.884 217.646 141.227 217.646C174.454 217.646 204.617 199.022 227 168.691C217.55 155.887 206.716 145.163 194.838 137.055L175.768 146.576C179.866 152.952 182.254 160.543 182.254 168.691C182.254 191.323 163.889 209.667 141.227 209.667C123.619 209.667 108.607 198.585 102.787 183.026L79.7969 194.506V194.516ZM127.111 170.889C127.568 173.863 128.961 176.629 131.12 178.788C133.796 181.464 137.437 182.966 141.227 182.956C149.116 182.956 155.513 176.569 155.513 168.691C155.513 164.821 153.971 161.309 151.464 158.732L127.121 170.889H127.111Z" fill="#F4F4F4"/>
<path d="M84.9886 168.371L223.995 101.549L193.444 38L177.666 94.1577L158.705 54.703L142.917 110.861L123.956 71.4061L108.168 127.564L89.2067 88.1091L73.4188 144.267L54.4575 104.813L29 195.291L63.7492 178.588L84.9886 168.381V168.371Z" fill="#F4F4F4"/>
</svg>
