<svg width="256" height="256" viewBox="0 0 256 256" fill="none" xmlns="http://www.w3.org/2000/svg">
<path d="M204.432 58C209.61 58 213.515 62.5108 211.426 70.9009L186.086 189.535C184.315 197.97 179.183 200 172.099 196.076L111.654 151.735C111.42 151.568 111.229 151.348 111.097 151.093C110.965 150.838 110.897 150.555 110.897 150.269C110.897 149.982 110.965 149.7 111.097 149.445C111.229 149.19 111.42 148.97 111.654 148.803L181.454 86.1926C184.633 83.3959 180.772 82.0426 176.594 84.5687L88.9933 139.465C88.7277 139.637 88.426 139.747 88.1113 139.786C87.7965 139.825 87.477 139.793 87.1768 139.691L49.9838 128.008C41.7187 125.617 41.7187 119.979 51.8457 115.964L200.663 58.9473C201.843 58.3849 203.125 58.0628 204.432 58Z" fill="#F4F4F4" stroke="#F4F4F4" stroke-width="9" stroke-linecap="round" stroke-linejoin="round"/>
</svg>
